<?xml version="1.0" encoding="UTF-8"?>
<svg id="Layer_1" data-name="Layer 1" xmlns="http://www.w3.org/2000/svg" xmlns:xlink="http://www.w3.org/1999/xlink" viewBox="0 0 896.38244 188.34675">
  <defs>
    <style>
      .cls-1 {
        fill: none;
      }

      .cls-2 {
        fill: #010101;
      }

      .cls-3 {
        fill: #f5ead7;
      }

      .cls-4 {
        fill: #f5e5c9;
      }

      .cls-5 {
        fill: #fff;
      }

      .cls-6 {
        fill: #ae8bbc;
      }

      .cls-7 {
        fill: #a6a6a6;
      }

      .cls-8 {
        fill: #231f20;
      }

      .cls-9 {
        fill: #5e3883;
      }

      .cls-10 {
        fill: #7c4ec4;
      }

      .cls-11 {
        clip-path: url(#clippath-1);
      }

      .cls-12 {
        clip-path: url(#clippath);
      }
    </style>
    <clipPath id="clippath">
      <path class="cls-1" d="M675.84206,42.79741c9.28295,0,14.48834,5.11862,14.48834,5.11862l1.38808-7.20077c0,.26026,13.96776,.52053,19.25994,3.81728,.86756,.60729-.60731,30.53826-.60731,30.53826l-19.69372,2.42918s-2.42917-12.57968-13.44725-12.57968c-6.33321,0-11.79885,6.767-11.79885,20.30101,0,14.48832,8.67564,19.43344,14.83533,19.43344,7.80808,0,13.70751-6.59349,14.92212-8.32862,5.55243,5.72593,16.04994,15.18238,16.04994,15.18238,0,0-7.72134,18.13209-30.97206,18.13209-19.08642,0-39.90796-14.83535-39.90796-44.41929-.17352-31.05881,18.30564-42.4239,35.4834-42.4239Zm70.53297,66.7157c4.7716,0,8.41538-3.64377,8.41538-11.53861,0-6.24646-2.42917-12.57968-8.41538-12.57968-7.46103,0-9.89025,6.15971-9.89025,12.57968,0,7.3743,5.37891,11.53861,9.89025,11.53861Zm-.43378-44.33254c17.35129,0,30.01771,11.62536,30.01771,32.18664,0,16.9175-9.02264,33.0542-29.84418,33.0542-18.65263,0-31.83962-9.71672-31.83962-33.31447-.08674-23.42424,14.22808-31.92636,31.6661-31.92636Zm39.56091,17.5248l-7.72129-.34703s-2.08218-12.40617-1.21461-16.31021l36.61123,.34702s.86756,13.96779,.60731,16.04994l-6.50673,.26027,6.50673,14.9221,14.66181-25.94017,11.10487,.34702,16.3102,25.85342,5.89943-14.83535-6.94051-.34703,.08674-16.31021c.60731-.60729,36.35097-.26027,36.26423-.26027,0,0,.9543,8.41537,.86756,16.31021l-7.3743,.52054s-12.1459,34.70257-19.60699,45.80739c0,0-9.8902,.86756-15.09559-.34702l-16.65725-26.72098-14.83538,27.06801s-11.10481,.86756-16.3102-.34702c.08679,0-14.83533-35.6569-16.65725-45.72064Z"/>
    </clipPath>
    <clipPath id="clippath-1">
      <path class="cls-1" d="M235.55315,112.20256c.52052-.52054,8.84914-1.21459,8.84914-1.21459l-1.73513-50.579s-7.11401,.26027-7.72132-.34703c-.60731-.6073,.52054-17.87182,.52054-17.87182l35.39662,.60729,.86756,17.35129-8.58888,.86756,.60731,13.44725,23.59773,1.12784-.26026-15.09562s-7.11404-.69405-7.2008-.69405c-.08674,0-1.21458-16.74399-1.21458-16.74399l40.25498,.34702s-.34702,16.74399-.60728,16.74399c-.26029,0-9.02266,1.47486-9.02266,1.47486l1.56161,48.41009,8.41538,.95432v17.5248s-37.99933,.52054-37.99933,.26027-.34702-17.87182-.34702-17.87182l8.58888-.86756-.34702-16.1367-24.89911-.69405s-.26026,17.87183,.34705,17.87183,8.24186-.52054,8.24186,.34702,1.73513,16.1367,1.12782,16.39697-38.17283-.6073-38.17283-.6073c0,0-.69404-14.48833-.26026-15.00886Zm127.4452-15.18238c0-6.50673-4.07756-11.88563-9.02266-11.88563-6.15971,0-10.15051,4.25106-10.15051,11.62536,0,7.11403,4.7716,11.62536,9.71673,11.62536,5.37888,.08676,9.45645-4.51133,9.45645-11.36509Zm-40.94905-.60729c0-23.25073,14.92212-30.10449,27.41504-30.10449,10.41077,0,18.13209,6.15971,18.13209,6.15971v-6.15971s25.94017-.86756,25.94017-.26027,.86756,16.31021,.69407,16.31021c-.26029,0-8.84917,1.82188-9.02266,2.08216-.34705,.26027,.26026,25.85342,.26026,25.85342,.08676,0,10.15051-.08676,10.32401,.69405,.26029,.86756,.26029,17.17778-.26026,17.17778-.34702,0-27.76206-.52054-27.76206-.86756s-1.21458-6.24646-1.21458-6.24646c0,0-4.85837,8.06835-17.35129,8.06835-11.3651,0-27.15478-7.46105-27.15478-32.70717Zm199.10605,14.22805c5.89943,0,8.58886-4.68485,8.58886-12.83995,0-8.06835-3.29673-12.40617-8.06834-12.40617-5.29212,0-8.58891,4.51134-8.58891,12.23266-.08674,7.3743,3.21,13.01347,8.06839,13.01347Zm-33.74827,28.02233l-.08674-51.09954h-9.02269c-.08674-7.80808-.86756-18.1321-.86756-18.1321-.08674,0,27.06802-4.42458,27.67532-3.81728,.26026,.69405,2.60269,5.3789,2.60269,5.3789,0,0,3.55699-5.3789,16.04994-5.3789,11.27834,0,28.02232,7.3743,28.02232,32.62042,0,25.50639-14.83538,31.31907-27.32828,31.31907-10.41077,0-14.22808-3.90404-14.22808-3.90404v12.1459s11.88564,1.3881,12.40616,1.73513c.69409,.6073,.34705,16.57048,.52057,16.57048,.26026,0-44.41931,.26027-44.24578,0l-.69404-16.65724,9.19616-.78081Zm-44.15902-28.02233c5.89945,0,8.58888-4.68485,8.58888-12.83995,0-8.06835-3.29673-12.40617-8.06834-12.40617-5.29215,0-8.58891,4.51134-8.58891,12.23266-.08674,7.3743,3.29676,13.01347,8.06836,13.01347Zm-33.74825,28.02233l-.08676-51.09954h-9.02266c-.08676-7.80808-.86756-18.1321-.86756-18.1321-.08676,0,27.06799-4.42458,27.6753-3.81728,.26026,.69405,2.60269,5.3789,2.60269,5.3789,0,0,3.55702-5.3789,16.04991-5.3789,11.27834,0,28.02237,7.3743,28.02237,32.62042,0,25.50639-14.83538,31.31907-27.32828,31.31907-10.4108,0-14.22808-3.90404-14.22808-3.90404v12.1459s11.88564,1.3881,12.40616,1.73513c.69404,.6073,.34705,16.57048,.52057,16.57048,.26026,0-44.41931,.26027-44.24581,0l-.69404-16.65724,9.19619-.78081Zm169.52204-18.1321s-17.17776-28.19584-18.99963-38.17283l-6.76699-.34703s-2.08218-11.97238-1.21461-15.96318l36.61123-.08676s.86756,14.05455,.60731,16.1367l-6.85378,.26027,9.28295,17.26453,8.9359-16.9175-6.15969-.34703-.26031-15.96319c.60731-.60729,35.30988,.52054,35.13636,.52054,0,0,.95435,7.80808,.86756,15.70291l-6.76699,.34703s-33.2277,65.41435-40.68874,76.51917c0,0-17.17782-3.47026-21.16859-10.41077-.69404-.08676,17.95859-28.36936,17.43802-28.54287Z"/>
    </clipPath>
  </defs>
  <g>
    <g class="cls-12">
      <rect class="cls-10" x="636.01962" y="36.37744" width="260.36282" height="98.38179"/>
    </g>
    <g class="cls-11">
      <rect class="cls-2" x="230.42844" y="37.85229" width="404.12309" height="125.97034"/>
    </g>
  </g>
  <g>
    <path class="cls-4" d="M181.6815,131.65932c-.12821-12.5924-2.73255-20.83105-8.11216-25.86806-.93941-.89621-1.96406-1.57922-2.94596-2.21949-5.59328-3.50029-12.25368-3.58576-17.6333-3.15891-.46959,0-.93917,.08547-1.36627,.12819-1.49423,.12797-3.07392,.34139-4.73909,.55482-1.66516,.25616-3.37282,.51232-5.29413,.81096l-2.56185,.42687c-3.11666,.51232-6.27629,1.06712-9.60638,1.53671-6.9593,.98191-16.13882,1.87834-25.53177,.21342-4.61113-.81096-9.00883-2.30495-13.0649-3.96963-3.67171-1.53671-7.04453-3.24437-9.94801-4.78109-2.60434-1.36578-5.16594-2.85977-7.72779-4.31127-2.17749-1.23782-4.31224-2.43316-6.40425-3.54302-2.04953-1.10963-4.0988-2.13427-6.06287-3.0732-.29865-.1282-.59755-.34162-.89644-.46958-4.6966-2.09177-11.44248-4.52494-18.27358-3.07344-1.11011,.21343-2.22022,.55481-3.33033,.98166-7.08751,2.90274-12.42438,9.73263-16.99278,21.89819-6.70314,22.32504-2.22022,42.04598,12.89397,57.07154,15.71198,15.58062,38.76737,22.36778,55.3333,25.27027,7.08726,1.23807,15.54104,2.26246,24.4644,2.26246,11.91182,0,24.67783-1.79287,36.1628-7.08606,19.34096-8.92142,30.3136-25.95328,31.63738-49.21725v-.38413Z"/>
    <path class="cls-7" d="M78.05991,27.33383c1.23807-.38411,2.5616-.64027,3.84264-.93893l.01346-.00282c-2.26057-2.47322-4.64681-5.0747-5.54217-8.31496-.21367-.8537-.38436-1.70741-.25641-2.56111,.12821-1.19534,.72599-2.26246,1.28104-3.3296,1.32353-2.60385,2.43365-5.72002,1.23807-8.4091-.89668-2.00631-2.94596-3.3296-5.08071-3.67123-2.13475-.34139-4.35498,.17093-6.36152,1.10986-3.15963,1.49399-6.14809,3.67099-8.32557,6.44577-2.17749,2.77454-3.58649,5.72002-4.5684,8.96416-.51232,1.70741-.85394,3.41483-1.02489,5.16496-.72373,6.42782,.63368,13.02529,3.26644,18.94617,5.84914-6.31733,13.2781-10.8846,21.51801-13.40318Z"/>
    <path class="cls-7" d="M170.23211,60.58296c.19796-.25108,8.39924-10.68183,9.83828-17.11889,1.60967-7.19914,.2834-15.21758-4.29656-20.95398-1.64466-2.04937-3.77698-3.87863-6.39117-4.41672-1.43151-.32122-2.98672-.13818-4.31495,.44729-.66425,.29285-1.2528,.71944-1.76251,1.23787-.27777,.27894-.42768,.56719-.66306,.8493-.09455,.12124-.18617,.20008-.28094,.32131-.14034,.16066-.2021,.41291-.25746,.58018-.69055,1.78881-1.05002,3.73095-.97742,5.61975-.00957,.12785-.01913,.25545,.0139,.38648,.08735,1.11951,.30254,2.24861,.00685,3.33919-.19454,.88438-.72043,1.61564-1.28869,2.34347-2.11385,2.59543-8.30444,5.35652-8.47481,5.43221,1.02828,.66456,2.09379,1.3203,3.05825,2.08703,11.59015,9.21394,15.78227,19.82046,15.79029,19.84551Z"/>
    <path class="cls-10" d="M216.71408,70.44791c-5.16917-6.09503-14.58153-9.13556-22.18135-10.11746-4.0988-.55482-8.62447-.72575-13.83339-.51232h-.42685c-4.29184,.25494-7.56807,.5099-10.04038,.76484-.00787-.02463-4.19991-10.6314-15.79029-19.84552-1.04932-.83419-2.22021-1.53671-3.33033-2.26246-4.31224-2.68908-9.05133-4.78085-14.2175-6.01867,4.44043-1.79289,10.93015-2.00631,13.49175-1.87835,1.23807,.08547,2.43365-.7255,2.8605-1.92084,.4271-1.19509,0-2.56111-1.02463-3.28686-9.8198-7.04308-19.55439-5.63455-25.61725-2.86001-.8537-4.56743-2.60434-8.708-2.68981-8.96392-.34139-.81122-1.06737-1.45149-1.92108-1.66492-.8967-.25616-1.79338-.04273-2.47639,.46959-2.73253,2.09153-4.3977,5.5066-5.42234,8.36661-10.67376-8.45208-21.30502-6.01892-21.7746-5.93345-1.15285,.25616-2.0068,1.23783-2.17749,2.39042-.17069,1.1526,.38436,2.30497,1.409,2.90275,2.39092,1.36578,5.5503,3.54278,7.94121,5.67729-6.01988-.93917-11.95455-.5978-17.59032,.64027-1.28104,.29866-2.60458,.55482-3.84264,.93893-8.24011,2.51864-15.66924,7.08606-21.51843,13.40362-2.43365-1.28056-6.06287-2.86001-11.39974-4.86632-4.69635-1.70741-9.05133-2.90275-13.2781-3.71371-6.91681-1.3233-17.0355-2.21974-24.80608,4.82358C2.87344,40.60925,.22632,46.37201,.01284,51.96384c-.17077,4.65288,1.36624,8.92142,4.35492,11.99486,4.90997,5.16521,12.6806,6.40303,20.06675,6.40303,3.79992,0,7.51436-.34139,10.71648-.59755l1.19558-.08547c2.81777-.21342,5.20892-.46959,7.2582-.76824l-2.13475,11.95213-.00127,.00969,.04401-.00969c6.8311-1.4515,13.57698,.98166,18.27358,3.07343,.29888,.12797,.59778,.34139,.89643,.46959,1.96407,.93893,4.01334,1.96357,6.06287,3.07319,2.09201,1.10986,4.22676,2.3052,6.40425,3.54302,2.56184,1.4515,5.12344,2.94549,7.72778,4.31127,2.90348,1.53671,6.27629,3.24437,9.94801,4.78109,4.05608,1.66468,8.45378,3.15867,13.0649,3.96963,9.39296,1.66492,18.57248,.76849,25.53178-.21342,3.33009-.46959,6.48973-1.0244,9.60638-1.53671l2.56185-.42687c1.92131-.29865,3.62897-.55481,5.29413-.81096,1.66517-.21343,3.24486-.42685,4.73909-.55482,.4271-.04273,.89668-.12819,1.36627-.12819,5.3588-.42521,11.98819-.34096,17.56801,3.11952,.01307-.0242,2.54167-14.3459,2.54167-14.3459,1.66492,.7255,3.54351,1.49399,5.80646,2.34769l.76848,.29888c6.23355,2.43292,14.81529,5.76252,22.62854,5.76252,3.03143,0,5.97741-.51232,8.58173-1.75015,3.88538-1.83538,6.70314-5.2077,7.89872-9.47624,1.40876-4.95178,2.13543-10.96306-2.06962-15.92128Z"/>
    <path class="cls-3" d="M193.50809,69.63599c-2.51911-.34139-7.89872-.59755-10.75922,.93917-2.86075,1.49399-11.74137,7.81155,2.09201,14.0439,4.61114,1.83538,11.8266,4.86608,16.60842,2.51839,4.44043-2.177,4.95276-8.15318,2.51911-11.99486-2.51911-4.01261-6.1481-4.86632-10.50306-5.46386l.04274-.04273Z"/>
    <path class="cls-3" d="M28.23442,41.07885c-4.2695-.76824-7.98395-1.10987-11.74113,2.43316-3.54375,3.37233-4.95276,9.90332-1.49447,13.61705,3.79991,4.01237,11.6559,3.11593,16.60866,2.60385,15.19941-2.34769,8.8379-11.7387,6.53221-14.25732-2.17748-2.51839-7.38616-3.92715-9.90527-4.354v-.04273Z"/>
    <path class="cls-8" d="M78.48677,79.19793c-2.13476-.38436-3.50102-2.43316-3.03119-4.56766,.38412-2.13427,2.4334-3.50005,4.5684-3.03071,2.13475,.38436,3.50102,2.43317,3.03118,4.56742-.38412,2.13451-2.43364,3.41507-4.56839,3.03095Z"/>
    <path class="cls-5" d="M66.74564,87.47882c2.09201,1.10986,4.22676,2.3052,6.40425,3.54302,2.56184,1.4515,5.12344,2.94549,7.72778,4.31127,2.89467,1.53205,6.25617,3.23384,9.91493,4.76692l-.00941-.0713c3.79967-10.79953,11.31403-38.54569-10.2469-43.02789-17.07824-3.45755-19.63984,23.26422-19.896,27.31932l-.02033,.05477c.02094,.00977,.04188,.02171,.06282,.03069,1.96407,.93893,4.01334,1.96357,6.06287,3.07319Z"/>
    <path class="cls-5" d="M139.02874,102.33371l2.56185-.42687c1.92131-.29865,3.62897-.55481,5.29413-.81096,1.63861-.21002,3.19348-.41918,4.66656-.54777l-.0127-.09252c.81122-2.77454,8.4108-30.09386-9.30772-32.74044-21.9453-3.2014-24.25097,25.86806-24.3362,37.1799l-.03213,.06383c4.22707-.15008,8.15897-.60863,11.55983-1.08846,3.33009-.46959,6.48973-1.0244,9.60638-1.53671Z"/>
    <path class="cls-8" d="M73.14989,91.02184c2.56184,1.4515,5.12344,2.94549,7.72778,4.31127,1.16306,.61557,2.40447,1.25876,3.70719,1.90721,.55024-.42318,1.11838-.95965,1.30416-1.20502,2.79947-3.69763,4.59557-8.63418,4.98908-13.63688,.44295-5.63095-.89114-11.34571-4.57155-15.47187-2.0005-2.24278-4.93149-3.7816-7.93176-3.60714-3.9519,.22979-7.20168,3.28578-9.26812,6.6622-2.27414,3.71579-3.56197,8.02917-3.69731,12.38354-.03534,1.137-.09836,3.0794,.22976,4.52557,.36865,.19435,.73734,.38825,1.10651,.58812,2.09201,1.10986,4.22676,2.3052,6.40425,3.54302Z"/>
    <path class="cls-9" d="M72.72304,121.11571c3.41555,.5978,6.70314-1.70741,7.30093-5.12222,.59755-3.41483-1.7079-6.70169-5.12345-7.29949-3.41579-.59755-6.70314,1.70742-7.30093,5.12249-.59779,3.41481,1.70766,6.70168,5.12345,7.29922Z"/>
    <path class="cls-9" d="M130.61793,118.085c-3.41579-.59755-6.70338,1.70742-7.30093,5.12249-.5978,3.41481,1.70764,6.70168,5.12345,7.29922,3.41554,.5978,6.70314-1.70741,7.30069-5.12222,.59778-3.41507-1.70766-6.70169-5.12322-7.29949Z"/>
    <path class="cls-6" d="M133.22227,151.38026c-1.62243-.38411-2.39091-1.8781-2.64707-2.60385-.64052-1.62194-2.39092-2.51839-3.97085-2.04879-.93918,.21342-1.70766,.81098-2.13475,1.66468-.42687,.81096-.46959,1.79287-.08523,2.68932,.04249,.12795,.17069,.38411,.29888,.72575-5.29438,3.07319-17.63329,8.83595-32.87544,6.44552-14.26024-2.26246-21.6039-11.90939-24.37917-16.51955,.64051-.68301,.98215-1.23807,1.02488-1.32328,.98191-1.4515,.55506-3.54303-1.06737-4.6529-1.57994-.93917-3.58649-.46959-4.5259,1.1526,0,.08523-1.02464,1.75015-3.03119,1.53671-.89668,0-1.8361,.34139-2.47638,1.0244-.55506,.59755-.85395,1.40876-.81122,2.21974-.08547,1.62194,1.11011,3.07344,2.77527,3.3296h.46959c.55505,0,1.15284,0,1.70765-.08548,2.94596,5.29318,11.27178,16.73298,29.37443,19.93462,3.07417,.55482,6.02013,.76824,8.83789,.76824,14.13229,0,24.97696-5.93345,29.54536-8.92142,.76849,.42685,1.57971,.72575,2.43341,.93917l.64052,.08523c1.57969,0,2.81801-.89644,3.41556-2.60385,.25616-1.62194-.76849-3.24414-2.51887-3.75645Z"/>
    <path class="cls-8" d="M139.02874,102.33371l2.56185-.42687c1.38997-.21606,2.66738-.40976,3.89852-.59744,1.05475-1.78108,2.00011-3.86313,2.67642-6.01877,2.86074-9.73265-.25616-19.20887-6.91658-21.21517-6.6604-2.04905-14.43092,4.22603-17.37689,13.95842-1.87001,6.11799-1.24182,12.25536,1.12147,16.39538,1.55399-.16977,3.03648-.36239,4.42882-.55884,3.33009-.46959,6.48973-1.0244,9.60638-1.53671Z"/>
    <path class="cls-5" d="M141.03553,85.98484c.38411-2.13426-1.11011-4.09783-3.24486-4.39673-2.13475-.38412-4.0988,1.10987-4.3977,3.24437-.38413,2.13427,1.11011,4.01237,3.24486,4.39649,2.13475,.38436,4.0988-1.10987,4.3977-3.24414Z"/>
    <path class="cls-5" d="M80.02397,71.59956c-2.09226-.46958-4.18428,.89644-4.5684,3.03071-.46983,2.09177,.89644,4.1833,3.03119,4.56742,2.13475,.38436,4.18427-.89619,4.56839-3.0307,.46984-2.09153-.89644-4.18306-3.03118-4.56742Z"/>
  </g>
</svg>