<svg id="Layer_1" data-name="Layer 1" xmlns="http://www.w3.org/2000/svg" xmlns:xlink="http://www.w3.org/1999/xlink" viewBox="0 0 700 200"><defs><style>.cls-1{fill:none;}.cls-2{clip-path:url(#clip-path);}.cls-3{fill:#7c4ec4;}.cls-4{clip-path:url(#clip-path-2);}.cls-5{fill:#010101;}</style><clipPath id="clip-path"><path class="cls-1" d="M462.44,42.7c9.28,0,14.49,5.12,14.49,5.12l1.39-7.2c0,.26,14,.52,19.26,3.82C498.44,45,497,75,497,75L477.27,77.4s-2.43-12.58-13.45-12.58c-6.33,0-11.8,6.77-11.8,20.3,0,14.49,8.68,19.43,14.84,19.43,7.81,0,13.71-6.59,14.92-8.33,5.55,5.73,16,15.18,16,15.18s-7.72,18.13-31,18.13c-19.09,0-39.91-14.84-39.91-44.42C426.78,54.06,445.26,42.7,462.44,42.7ZM533,109.41c4.77,0,8.42-3.64,8.42-11.54,0-6.25-2.43-12.58-8.42-12.58-7.46,0-9.89,6.16-9.89,12.58C523.08,105.25,528.46,109.41,533,109.41Zm-.43-44.33c17.35,0,30,11.63,30,32.19,0,16.92-9,33.05-29.84,33.05-18.65,0-31.84-9.72-31.84-33.31C500.78,73.58,515.1,65.08,532.54,65.08ZM572.1,82.61l-7.72-.35s-2.08-12.41-1.21-16.31l36.61.35s.87,14,.61,16l-6.51.26,6.51,14.92L615,71.59l11.1.35,16.31,25.85L648.36,83l-6.94-.35.09-16.31c.61-.61,36.35-.26,36.26-.26a152.87,152.87,0,0,1,.87,16.31l-7.37.52s-12.15,34.7-19.61,45.81c0,0-9.89.87-15.1-.35L619.9,101.6l-14.84,27.07s-11.1.87-16.31-.35C588.84,128.33,573.92,92.67,572.1,82.61Z"/></clipPath><clipPath id="clip-path-2"><path class="cls-1" d="M22.15,112.1c.52-.52,8.85-1.21,8.85-1.21L29.26,60.31s-7.11.26-7.72-.35.52-17.87.52-17.87l35.4.61L58.33,60l-8.59.87.61,13.45,23.6,1.13-.26-15.1-7.2-.69C66.39,59.7,65.27,43,65.27,43l40.25.35S105.17,60,104.91,60s-9,1.47-9,1.47l1.56,48.41,8.42,1v17.52s-38,.52-38,.26-.35-17.87-.35-17.87l8.59-.87L75.76,93.8l-24.9-.69S50.6,111,51.21,111s8.24-.52,8.24.35,1.74,16.14,1.13,16.4-38.17-.61-38.17-.61S21.71,112.62,22.15,112.1ZM149.59,96.92c0-6.51-4.08-11.89-9-11.89-6.16,0-10.15,4.25-10.15,11.63,0,7.11,4.77,11.63,9.72,11.63C145.52,108.37,149.59,103.77,149.59,96.92Zm-40.95-.61c0-23.25,14.92-30.1,27.42-30.1a31.91,31.91,0,0,1,18.13,6.16V66.21s25.94-.87,25.94-.26.87,16.31.69,16.31-8.85,1.82-9,2.08c-.35.26.26,25.85.26,25.85s10.15-.09,10.32.69.26,17.18-.26,17.18c-.35,0-27.76-.52-27.76-.87s-1.21-6.25-1.21-6.25S148.29,129,135.8,129C124.43,129,108.64,121.56,108.64,96.31Zm199.11,14.23c5.9,0,8.59-4.68,8.59-12.84s-3.3-12.41-8.07-12.41c-5.29,0-8.59,4.51-8.59,12.23C299.59,104.9,302.89,110.54,307.75,110.54Zm-33.75,28-.09-51.1h-9c-.09-7.81-.87-18.13-.87-18.13s27.07-4.42,27.68-3.82c.26.69,2.6,5.38,2.6,5.38s3.56-5.38,16-5.38c11.28,0,28,7.37,28,32.62,0,25.51-14.84,31.32-27.33,31.32-10.41,0-14.23-3.9-14.23-3.9V137.7s11.89,1.39,12.41,1.74c.69.61.35,16.57.52,16.57s-44.42.26-44.25,0l-.69-16.66Zm-44.16-28c5.9,0,8.59-4.68,8.59-12.84s-3.3-12.41-8.07-12.41c-5.29,0-8.59,4.51-8.59,12.23C221.69,104.9,225.07,110.54,229.84,110.54Zm-33.75,28L196,87.46h-9c-.09-7.81-.87-18.13-.87-18.13s27.07-4.42,27.68-3.82c.26.69,2.6,5.38,2.6,5.38s3.56-5.38,16-5.38c11.28,0,28,7.37,28,32.62,0,25.51-14.84,31.32-27.33,31.32-10.41,0-14.23-3.9-14.23-3.9V137.7s11.89,1.39,12.41,1.74c.69.61.35,16.57.52,16.57s-44.42.26-44.25,0l-.69-16.66Zm169.52-18.13s-17.18-28.2-19-38.17l-6.77-.35s-2.08-12-1.21-16l36.61-.09s.87,14.05.61,16.14l-6.85.26,9.28,17.26,8.94-16.92-6.16-.35-.26-16c.61-.61,35.31.52,35.14.52a135.73,135.73,0,0,1,.87,15.7l-6.77.35s-33.23,65.41-40.69,76.52c0,0-17.18-3.47-21.17-10.41C347.48,148.89,366.14,120.6,365.62,120.43Z"/></clipPath></defs><title>Logo 3 - Text</title><g class="cls-2"><rect class="cls-3" x="422.61" y="36.28" width="260.36" height="98.38"/></g><g class="cls-4"><rect class="cls-5" x="17.02" y="37.75" width="404.12" height="125.97"/></g></svg>